<svg version="1.1" viewBox="0.0 0.0 600.0 371.0" fill="none" stroke="none" stroke-linecap="square" stroke-miterlimit="10" width="600" height="371" xmlns:xlink="http://www.w3.org/1999/xlink" xmlns="http://www.w3.org/2000/svg"><path fill="#ffffff" d="M0 0L600.0 0L600.0 371.0L0 371.0L0 0Z" fill-rule="nonzero"/><path stroke="#333333" stroke-width="1.0" stroke-linecap="butt" d="M66.5 300.5L581.5 300.5" fill-rule="nonzero"/><path stroke="#cccccc" stroke-width="1.0" stroke-linecap="butt" d="M66.5 238.5L581.5 238.5" fill-rule="nonzero"/><path stroke="#cccccc" stroke-width="1.0" stroke-linecap="butt" d="M66.5 176.5L581.5 176.5" fill-rule="nonzero"/><path stroke="#cccccc" stroke-width="1.0" stroke-linecap="butt" d="M66.5 114.5L581.5 114.5" fill-rule="nonzero"/><path stroke="#cccccc" stroke-width="1.0" stroke-linecap="butt" d="M66.5 51.5L581.5 51.5" fill-rule="nonzero"/><clipPath id="id_0"><path d="M66.55 51.916668L581.45 51.916668L581.45 300.45L66.55 300.45L66.55 51.916668Z" clip-rule="nonzero"/></clipPath><path stroke="#000000" stroke-width="2.0" stroke-linecap="butt" stroke-opacity="0.0" clip-path="url(#id_0)" d="M144.0 300.0L121.0 300.0L121.0 246.0C121.0 244.89543 121.89543 244.0 123.0 244.0L142.0 244.0C143.10457 244.0 144.0 244.89543 144.0 246.0Z" fill-rule="nonzero"/><path fill="#ff0000" clip-path="url(#id_0)" d="M144.0 300.0L121.0 300.0L121.0 246.0C121.0 244.89543 121.89543 244.0 123.0 244.0L142.0 244.0C143.10457 244.0 144.0 244.89543 144.0 246.0Z" fill-rule="nonzero"/><path stroke="#000000" stroke-width="2.0" stroke-linecap="butt" stroke-opacity="0.0" clip-path="url(#id_0)" d="M298.0 300.0L275.0 300.0L275.0 189.0C275.0 187.89543 275.89542 187.0 277.0 187.0L296.0 187.0C297.10458 187.0 298.0 187.89543 298.0 189.0Z" fill-rule="nonzero"/><path fill="#ff0000" clip-path="url(#id_0)" d="M298.0 300.0L275.0 300.0L275.0 189.0C275.0 187.89543 275.89542 187.0 277.0 187.0L296.0 187.0C297.10458 187.0 298.0 187.89543 298.0 189.0Z" fill-rule="nonzero"/><path stroke="#000000" stroke-width="2.0" stroke-linecap="butt" stroke-opacity="0.0" clip-path="url(#id_0)" d="M452.0 300.0L429.0 300.0L429.0 161.0C429.0 159.89543 429.89542 159.0 431.0 159.0L450.0 159.0C451.10458 159.0 452.0 159.89543 452.0 161.0Z" fill-rule="nonzero"/><path fill="#ff0000" clip-path="url(#id_0)" d="M452.0 300.0L429.0 300.0L429.0 161.0C429.0 159.89543 429.89542 159.0 431.0 159.0L450.0 159.0C451.10458 159.0 452.0 159.89543 452.0 161.0Z" fill-rule="nonzero"/><path stroke="#000000" stroke-width="2.0" stroke-linecap="butt" stroke-opacity="0.0" clip-path="url(#id_0)" d="M169.0 300.0L146.0 300.0L146.0 65.0C146.0 63.89543 146.89543 63.0 148.0 63.0L167.0 63.0C168.10457 63.0 169.0 63.89543 169.0 65.0Z" fill-rule="nonzero"/><path fill="#00ffff" clip-path="url(#id_0)" d="M169.0 300.0L146.0 300.0L146.0 65.0C146.0 63.89543 146.89543 63.0 148.0 63.0L167.0 63.0C168.10457 63.0 169.0 63.89543 169.0 65.0Z" fill-rule="nonzero"/><path stroke="#000000" stroke-width="2.0" stroke-linecap="butt" stroke-opacity="0.0" clip-path="url(#id_0)" d="M323.0 300.0L300.0 300.0L300.0 262.0C300.0 260.89542 300.89542 260.0 302.0 260.0L321.0 260.0C322.10458 260.0 323.0 260.89542 323.0 262.0Z" fill-rule="nonzero"/><path fill="#00ffff" clip-path="url(#id_0)" d="M323.0 300.0L300.0 300.0L300.0 262.0C300.0 260.89542 300.89542 260.0 302.0 260.0L321.0 260.0C322.10458 260.0 323.0 260.89542 323.0 262.0Z" fill-rule="nonzero"/><path stroke="#000000" stroke-width="2.0" stroke-linecap="butt" stroke-opacity="0.0" clip-path="url(#id_0)" d="M477.0 300.0L454.0 300.0L454.0 269.0C454.0 267.89542 454.89542 267.0 456.0 267.0L475.0 267.0C476.10458 267.0 477.0 267.89542 477.0 269.0Z" fill-rule="nonzero"/><path fill="#00ffff" clip-path="url(#id_0)" d="M477.0 300.0L454.0 300.0L454.0 269.0C454.0 267.89542 454.89542 267.0 456.0 267.0L475.0 267.0C476.10458 267.0 477.0 267.89542 477.0 269.0Z" fill-rule="nonzero"/><path stroke="#000000" stroke-width="2.0" stroke-linecap="butt" stroke-opacity="0.0" clip-path="url(#id_0)" d="M194.0 300.0L171.0 300.0L171.0 72.0C171.0 70.89543 171.89543 70.0 173.0 70.0L192.0 70.0C193.10457 70.0 194.0 70.89543 194.0 72.0Z" fill-rule="nonzero"/><path fill="#0000ff" clip-path="url(#id_0)" d="M194.0 300.0L171.0 300.0L171.0 72.0C171.0 70.89543 171.89543 70.0 173.0 70.0L192.0 70.0C193.10457 70.0 194.0 70.89543 194.0 72.0Z" fill-rule="nonzero"/><path stroke="#000000" stroke-width="2.0" stroke-linecap="butt" stroke-opacity="0.0" clip-path="url(#id_0)" d="M348.0 300.0L325.0 300.0L325.0 279.0C325.0 277.89542 325.89542 277.0 327.0 277.0L346.0 277.0C347.10458 277.0 348.0 277.89542 348.0 279.0Z" fill-rule="nonzero"/><path fill="#0000ff" clip-path="url(#id_0)" d="M348.0 300.0L325.0 300.0L325.0 279.0C325.0 277.89542 325.89542 277.0 327.0 277.0L346.0 277.0C347.10458 277.0 348.0 277.89542 348.0 279.0Z" fill-rule="nonzero"/><path stroke="#000000" stroke-width="2.0" stroke-linecap="butt" stroke-opacity="0.0" clip-path="url(#id_0)" d="M502.0 300.0L479.0 300.0L479.0 245.0C479.0 243.89543 479.89542 243.0 481.0 243.0L500.0 243.0C501.10458 243.0 502.0 243.89543 502.0 245.0Z" fill-rule="nonzero"/><path fill="#0000ff" clip-path="url(#id_0)" d="M502.0 300.0L479.0 300.0L479.0 245.0C479.0 243.89543 479.89542 243.0 481.0 243.0L500.0 243.0C501.10458 243.0 502.0 243.89543 502.0 245.0Z" fill-rule="nonzero"/><path stroke="#000000" stroke-width="2.0" stroke-linecap="butt" stroke-opacity="0.0" clip-path="url(#id_0)" d="M219.0 300.0L196.0 300.0L196.0 204.0C196.0 202.89543 196.89543 202.0 198.0 202.0L217.0 202.0C218.10457 202.0 219.0 202.89543 219.0 204.0Z" fill-rule="nonzero"/><path fill="#000000" clip-path="url(#id_0)" d="M219.0 300.0L196.0 300.0L196.0 204.0C196.0 202.89543 196.89543 202.0 198.0 202.0L217.0 202.0C218.10457 202.0 219.0 202.89543 219.0 204.0Z" fill-rule="nonzero"/><path stroke="#000000" stroke-width="2.0" stroke-linecap="butt" stroke-opacity="0.0" clip-path="url(#id_0)" d="M373.0 300.0L350.0 300.0L350.0 188.0C350.0 186.89543 350.89542 186.0 352.0 186.0L371.0 186.0C372.10458 186.0 373.0 186.89543 373.0 188.0Z" fill-rule="nonzero"/><path fill="#000000" clip-path="url(#id_0)" d="M373.0 300.0L350.0 300.0L350.0 188.0C350.0 186.89543 350.89542 186.0 352.0 186.0L371.0 186.0C372.10458 186.0 373.0 186.89543 373.0 188.0Z" fill-rule="nonzero"/><path stroke="#000000" stroke-width="2.0" stroke-linecap="butt" stroke-opacity="0.0" clip-path="url(#id_0)" d="M527.0 300.0L504.0 300.0L504.0 204.0C504.0 202.89543 504.89542 202.0 506.0 202.0L525.0 202.0C526.10455 202.0 527.0 202.89543 527.0 204.0Z" fill-rule="nonzero"/><path fill="#000000" clip-path="url(#id_0)" d="M527.0 300.0L504.0 300.0L504.0 204.0C504.0 202.89543 504.89542 202.0 506.0 202.0L525.0 202.0C526.10455 202.0 527.0 202.89543 527.0 204.0Z" fill-rule="nonzero"/><path fill="#000000" d="M291.60938 349.45L291.60938 341.8719L288.78125 341.8719L288.78125 340.85626L295.59375 340.85626L295.59375 341.8719L292.75 341.8719L292.75 349.45L291.60938 349.45ZM300.375 349.45L300.375 348.52814Q299.64062 349.59064 298.39062 349.59064Q297.84375 349.59064 297.35938 349.3875Q296.89062 349.16876 296.65625 348.85626Q296.42188 348.52814 296.32812 348.0594Q296.26562 347.7625 296.26562 347.075L296.26562 343.23126L297.32812 343.23126L297.32812 346.6844Q297.32812 347.4969 297.39062 347.79376Q297.48438 348.2 297.79688 348.45Q298.125 348.6844 298.60938 348.6844Q299.07812 348.6844 299.48438 348.45Q299.90625 348.2 300.07812 347.77814Q300.26562 347.35626 300.26562 346.5594L300.26562 343.23126L301.3125 343.23126L301.3125 349.45L300.375 349.45ZM303.29688 349.45L303.29688 343.23126L304.23438 343.23126L304.23438 344.10626Q304.53125 343.6375 305.01562 343.3719Q305.5 343.09064 306.125 343.09064Q306.8125 343.09064 307.25 343.3719Q307.70312 343.65314 307.875 344.16876Q308.625 343.09064 309.79688 343.09064Q310.73438 343.09064 311.21875 343.60626Q311.71875 344.10626 311.71875 345.1844L311.71875 349.45L310.67188 349.45L310.67188 345.52814Q310.67188 344.90314 310.5625 344.6219Q310.46875 344.34064 310.20312 344.16876Q309.9375 343.9969 309.5625 343.9969Q308.90625 343.9969 308.46875 344.4344Q308.04688 344.8719 308.04688 345.84064L308.04688 349.45L306.98438 349.45L306.98438 345.40314Q306.98438 344.7 306.71875 344.35626Q306.46875 343.9969 305.89062 343.9969Q305.4375 343.9969 305.0625 344.23126Q304.6875 344.46564 304.51562 344.91876Q304.34375 345.3719 304.34375 346.21564L304.34375 349.45L303.29688 349.45ZM313.90625 346.34064Q313.90625 344.60626 314.85938 343.77814Q315.65625 343.09064 316.8125 343.09064Q318.09375 343.09064 318.90625 343.9344Q319.73438 344.7625 319.73438 346.2469Q319.73438 347.45 319.375 348.1375Q319.01562 348.825 318.3125 349.21564Q317.625 349.59064 316.8125 349.59064Q315.51562 349.59064 314.70312 348.7625Q313.90625 347.91876 313.90625 346.34064ZM314.98438 346.34064Q314.98438 347.52814 315.5 348.1219Q316.03125 348.71564 316.8125 348.71564Q317.60938 348.71564 318.125 348.1219Q318.64062 347.52814 318.64062 346.3094Q318.64062 345.15314 318.10938 344.5594Q317.59375 343.96564 316.8125 343.96564Q316.03125 343.96564 315.5 344.5594Q314.98438 345.1375 314.98438 346.34064ZM321.28125 349.45L321.28125 343.23126L322.23438 343.23126L322.23438 344.16876Q322.59375 343.5125 322.89062 343.3094Q323.20312 343.09064 323.57812 343.09064Q324.10938 343.09064 324.65625 343.41876L324.29688 344.40314Q323.90625 344.16876 323.53125 344.16876Q323.17188 344.16876 322.89062 344.3875Q322.625 344.59064 322.51562 344.96564Q322.32812 345.52814 322.32812 346.1844L322.32812 349.45L321.28125 349.45ZM325.59375 349.45L325.59375 348.2469L326.79688 348.2469L326.79688 349.45L325.59375 349.45ZM328.04688 346.6844L329.10938 346.59064Q329.1875 347.2469 329.46875 347.65314Q329.75 348.0594 330.32812 348.325Q330.92188 348.575 331.65625 348.575Q332.29688 348.575 332.79688 348.3875Q333.29688 348.1844 333.53125 347.85626Q333.78125 347.5125 333.78125 347.1219Q333.78125 346.71564 333.54688 346.41876Q333.3125 346.10626 332.78125 345.90314Q332.42188 345.7625 331.23438 345.48126Q330.0625 345.2 329.59375 344.95Q328.96875 344.6219 328.67188 344.15314Q328.375 343.66876 328.375 343.075Q328.375 342.4344 328.73438 341.8719Q329.10938 341.29376 329.8125 341.0125Q330.53125 340.71564 331.39062 340.71564Q332.34375 340.71564 333.07812 341.02814Q333.8125 341.325 334.20312 341.9344Q334.59375 342.52814 334.625 343.27814L333.53125 343.35626Q333.4375 342.54376 332.92188 342.1375Q332.42188 341.71564 331.4375 341.71564Q330.40625 341.71564 329.9375 342.09064Q329.46875 342.46564 329.46875 342.9969Q329.46875 343.46564 329.79688 343.7625Q330.125 344.0594 331.5 344.3719Q332.89062 344.6844 333.40625 344.91876Q334.15625 345.27814 334.51562 345.8094Q334.875 346.325 334.875 347.02814Q334.875 347.71564 334.48438 348.325Q334.09375 348.91876 333.35938 349.2625Q332.625 349.59064 331.70312 349.59064Q330.53125 349.59064 329.73438 349.2625Q328.95312 348.91876 328.5 348.23126Q328.0625 347.54376 328.04688 346.6844ZM338.59375 348.5125L338.75 349.4344Q338.29688 349.52814 337.95312 349.52814Q337.375 349.52814 337.0625 349.35626Q336.75 349.16876 336.60938 348.8719Q336.48438 348.575 336.48438 347.6219L336.48438 344.04376L335.71875 344.04376L335.71875 343.23126L336.48438 343.23126L336.48438 341.6844L337.53125 341.0594L337.53125 343.23126L338.59375 343.23126L338.59375 344.04376L337.53125 344.04376L337.53125 347.6844Q337.53125 348.1375 337.57812 348.2625Q337.64062 348.3875 337.76562 348.46564Q337.89062 348.54376 338.125 348.54376Q338.3125 348.54376 338.59375 348.5125ZM343.35938 348.6844Q342.76562 349.1844 342.21875 349.3875Q341.6875 349.59064 341.0625 349.59064Q340.03125 349.59064 339.48438 349.09064Q338.9375 348.59064 338.9375 347.8094Q338.9375 347.35626 339.14062 346.98126Q339.34375 346.59064 339.6875 346.3719Q340.03125 346.1375 340.45312 346.02814Q340.75 345.9344 341.39062 345.85626Q342.65625 345.71564 343.26562 345.4969Q343.26562 345.27814 343.26562 345.23126Q343.26562 344.575 342.96875 344.3094Q342.5625 343.96564 341.76562 343.96564Q341.03125 343.96564 340.67188 344.23126Q340.3125 344.48126 340.14062 345.1375L339.10938 344.9969Q339.25 344.34064 339.57812 343.9344Q339.90625 343.52814 340.51562 343.3094Q341.125 343.09064 341.92188 343.09064Q342.71875 343.09064 343.21875 343.27814Q343.71875 343.46564 343.95312 343.7469Q344.1875 344.02814 344.28125 344.46564Q344.32812 344.73126 344.32812 345.4344L344.32812 346.84064Q344.32812 348.3094 344.39062 348.7Q344.46875 349.09064 344.67188 349.45L343.5625 349.45Q343.40625 349.1219 343.35938 348.6844ZM343.26562 346.325Q342.6875 346.5594 341.54688 346.73126Q340.89062 346.825 340.625 346.95Q340.35938 347.0594 340.20312 347.27814Q340.0625 347.4969 340.0625 347.77814Q340.0625 348.2 340.375 348.48126Q340.70312 348.7625 341.3125 348.7625Q341.92188 348.7625 342.39062 348.4969Q342.875 348.23126 343.09375 347.7625Q343.26562 347.40314 343.26562 346.71564L343.26562 346.325ZM346.09375 349.96564L347.125 350.1219Q347.1875 350.59064 347.48438 350.8094Q347.875 351.10626 348.54688 351.10626Q349.28125 351.10626 349.67188 350.8094Q350.07812 350.5125 350.21875 349.9969Q350.3125 349.66876 350.29688 348.6375Q349.60938 349.45 348.57812 349.45Q347.29688 349.45 346.59375 348.52814Q345.89062 347.59064 345.89062 346.3094Q345.89062 345.41876 346.20312 344.66876Q346.53125 343.90314 347.14062 343.4969Q347.75 343.09064 348.57812 343.09064Q349.6875 343.09064 350.40625 343.98126L350.40625 343.23126L351.375 343.23126L351.375 348.60626Q351.375 350.0594 351.07812 350.66876Q350.78125 351.27814 350.14062 351.6219Q349.5 351.98126 348.5625 351.98126Q347.45312 351.98126 346.76562 351.48126Q346.07812 350.98126 346.09375 349.96564ZM346.96875 346.23126Q346.96875 347.45 347.45312 348.0125Q347.9375 348.575 348.67188 348.575Q349.40625 348.575 349.89062 348.0125Q350.39062 347.45 350.39062 346.2625Q350.39062 345.1219 349.875 344.54376Q349.375 343.96564 348.65625 343.96564Q347.95312 343.96564 347.45312 344.54376Q346.96875 345.10626 346.96875 346.23126ZM357.54688 347.45L358.64062 347.575Q358.39062 348.52814 357.6875 349.0594Q356.98438 349.59064 355.90625 349.59064Q354.54688 349.59064 353.73438 348.7469Q352.9375 347.90314 352.9375 346.3875Q352.9375 344.825 353.75 343.96564Q354.5625 343.09064 355.84375 343.09064Q357.09375 343.09064 357.875 343.9344Q358.67188 344.77814 358.67188 346.325Q358.67188 346.41876 358.67188 346.60626L354.03125 346.60626Q354.09375 347.6375 354.60938 348.1844Q355.125 348.71564 355.90625 348.71564Q356.48438 348.71564 356.89062 348.41876Q357.3125 348.10626 357.54688 347.45ZM354.09375 345.7469L357.5625 345.7469Q357.5 344.95 357.17188 344.5594Q356.65625 343.95 355.85938 343.95Q355.125 343.95 354.625 344.4344Q354.14062 344.91876 354.09375 345.7469Z" fill-rule="nonzero"/><path fill="#000000" d="M26.05 300.21564Q26.05 298.6844 26.3625 297.7625Q26.675 296.825 27.284374 296.325Q27.909374 295.825 28.846874 295.825Q29.534374 295.825 30.05 296.10626Q30.58125 296.3875 30.925 296.91876Q31.26875 297.4344 31.45625 298.1844Q31.64375 298.9344 31.64375 300.21564Q31.64375 301.73126 31.33125 302.65314Q31.034374 303.575 30.409374 304.09064Q29.8 304.59064 28.846874 304.59064Q27.6125 304.59064 26.89375 303.7Q26.05 302.6375 26.05 300.21564ZM27.128124 300.21564Q27.128124 302.325 27.628124 303.02814Q28.128124 303.73126 28.846874 303.73126Q29.58125 303.73126 30.065624 303.02814Q30.565624 302.325 30.565624 300.21564Q30.565624 298.09064 30.065624 297.40314Q29.58125 296.7 28.83125 296.7Q28.1125 296.7 27.675 297.3094Q27.128124 298.09064 27.128124 300.21564ZM33.64375 304.45L33.64375 303.2469L34.846874 303.2469L34.846874 304.45L33.64375 304.45ZM36.05 300.21564Q36.05 298.6844 36.3625 297.7625Q36.675 296.825 37.284374 296.325Q37.909374 295.825 38.846874 295.825Q39.534374 295.825 40.05 296.10626Q40.58125 296.3875 40.925 296.91876Q41.26875 297.4344 41.45625 298.1844Q41.64375 298.9344 41.64375 300.21564Q41.64375 301.73126 41.33125 302.65314Q41.034374 303.575 40.409374 304.09064Q39.8 304.59064 38.846874 304.59064Q37.6125 304.59064 36.89375 303.7Q36.05 302.6375 36.05 300.21564ZM37.128124 300.21564Q37.128124 302.325 37.628124 303.02814Q38.128124 303.73126 38.846874 303.73126Q39.58125 303.73126 40.065624 303.02814Q40.565624 302.325 40.565624 300.21564Q40.565624 298.09064 40.065624 297.40314Q39.58125 296.7 38.83125 296.7Q38.1125 296.7 37.675 297.3094Q37.128124 298.09064 37.128124 300.21564ZM43.05 300.21564Q43.05 298.6844 43.3625 297.7625Q43.675 296.825 44.284374 296.325Q44.909374 295.825 45.846874 295.825Q46.534374 295.825 47.05 296.10626Q47.58125 296.3875 47.925 296.91876Q48.26875 297.4344 48.45625 298.1844Q48.64375 298.9344 48.64375 300.21564Q48.64375 301.73126 48.33125 302.65314Q48.034374 303.575 47.409374 304.09064Q46.8 304.59064 45.846874 304.59064Q44.6125 304.59064 43.89375 303.7Q43.05 302.6375 43.05 300.21564ZM44.128124 300.21564Q44.128124 302.325 44.628124 303.02814Q45.128124 303.73126 45.846874 303.73126Q46.58125 303.73126 47.065624 303.02814Q47.565624 302.325 47.565624 300.21564Q47.565624 298.09064 47.065624 297.40314Q46.58125 296.7 45.83125 296.7Q45.1125 296.7 44.675 297.3094Q44.128124 298.09064 44.128124 300.21564ZM50.253124 297.91876Q50.253124 296.9969 50.70625 296.35626Q51.175 295.71564 52.05 295.71564Q52.8625 295.71564 53.39375 296.29376Q53.925 296.8719 53.925 297.98126Q53.925 299.075 53.378124 299.66876Q52.846874 300.2469 52.065624 300.2469Q51.284374 300.2469 50.76875 299.66876Q50.253124 299.09064 50.253124 297.91876ZM52.08125 296.4344Q51.690624 296.4344 51.425 296.77814Q51.175 297.1219 51.175 298.02814Q51.175 298.85626 51.425 299.2Q51.690624 299.52814 52.08125 299.52814Q52.4875 299.52814 52.7375 299.1844Q53.003124 298.84064 53.003124 297.95Q53.003124 297.10626 52.7375 296.77814Q52.471874 296.4344 52.08125 296.4344ZM52.08125 304.7625L56.784374 295.71564L57.64375 295.71564L52.95625 304.7625L52.08125 304.7625ZM55.8 302.4344Q55.8 301.5125 56.253124 300.8719Q56.721874 300.23126 57.6125 300.23126Q58.425 300.23126 58.95625 300.8094Q59.4875 301.3719 59.4875 302.4969Q59.4875 303.59064 58.940624 304.1844Q58.409374 304.7625 57.6125 304.7625Q56.846874 304.7625 56.315624 304.1844Q55.8 303.60626 55.8 302.4344ZM57.64375 300.95Q57.2375 300.95 56.971874 301.29376Q56.721874 301.6375 56.721874 302.54376Q56.721874 303.35626 56.9875 303.7Q57.253124 304.04376 57.64375 304.04376Q58.034374 304.04376 58.3 303.7Q58.565624 303.35626 58.565624 302.45Q58.565624 301.6219 58.3 301.29376Q58.034374 300.95 57.64375 300.95Z" fill-rule="nonzero"/><path fill="#000000" d="M24.596874 241.30104L24.596874 242.31667L18.909374 242.31667Q18.909374 241.94167 19.034374 241.58229Q19.253124 241.00417 19.721874 240.44167Q20.20625 239.87917 21.1125 239.14479Q22.51875 237.98854 23.003124 237.31667Q23.503124 236.64479 23.503124 236.05104Q23.503124 235.42604 23.05 235.00417Q22.596874 234.56667 21.878124 234.56667Q21.1125 234.56667 20.659374 235.01979Q20.20625 235.47292 20.190624 236.28542L19.1125 236.17604Q19.221874 234.95729 19.940624 234.33229Q20.675 233.69167 21.909374 233.69167Q23.14375 233.69167 23.8625 234.37917Q24.58125 235.06667 24.58125 236.08229Q24.58125 236.59792 24.3625 237.09792Q24.159374 237.58229 23.659374 238.14479Q23.175 238.69167 22.05 239.64479Q21.096874 240.44167 20.815624 240.73854Q20.55 241.01979 20.378124 241.30104L24.596874 241.30104ZM26.05 238.08229Q26.05 236.55104 26.3625 235.62917Q26.675 234.69167 27.284374 234.19167Q27.909374 233.69167 28.846874 233.69167Q29.534374 233.69167 30.05 233.97292Q30.58125 234.25417 30.925 234.78542Q31.26875 235.30104 31.45625 236.05104Q31.64375 236.80104 31.64375 238.08229Q31.64375 239.59792 31.33125 240.51979Q31.034374 241.44167 30.409374 241.95729Q29.8 242.45729 28.846874 242.45729Q27.6125 242.45729 26.89375 241.56667Q26.05 240.50417 26.05 238.08229ZM27.128124 238.08229Q27.128124 240.19167 27.628124 240.89479Q28.128124 241.59792 28.846874 241.59792Q29.58125 241.59792 30.065624 240.89479Q30.565624 240.19167 30.565624 238.08229Q30.565624 235.95729 30.065624 235.26979Q29.58125 234.56667 28.83125 234.56667Q28.1125 234.56667 27.675 235.17604Q27.128124 235.95729 27.128124 238.08229ZM33.64375 242.31667L33.64375 241.11354L34.846874 241.11354L34.846874 242.31667L33.64375 242.31667ZM36.05 238.08229Q36.05 236.55104 36.3625 235.62917Q36.675 234.69167 37.284374 234.19167Q37.909374 233.69167 38.846874 233.69167Q39.534374 233.69167 40.05 233.97292Q40.58125 234.25417 40.925 234.78542Q41.26875 235.30104 41.45625 236.05104Q41.64375 236.80104 41.64375 238.08229Q41.64375 239.59792 41.33125 240.51979Q41.034374 241.44167 40.409374 241.95729Q39.8 242.45729 38.846874 242.45729Q37.6125 242.45729 36.89375 241.56667Q36.05 240.50417 36.05 238.08229ZM37.128124 238.08229Q37.128124 240.19167 37.628124 240.89479Q38.128124 241.59792 38.846874 241.59792Q39.58125 241.59792 40.065624 240.89479Q40.565624 240.19167 40.565624 238.08229Q40.565624 235.95729 40.065624 235.26979Q39.58125 234.56667 38.83125 234.56667Q38.1125 234.56667 37.675 235.17604Q37.128124 235.95729 37.128124 238.08229ZM43.05 238.08229Q43.05 236.55104 43.3625 235.62917Q43.675 234.69167 44.284374 234.19167Q44.909374 233.69167 45.846874 233.69167Q46.534374 233.69167 47.05 233.97292Q47.58125 234.25417 47.925 234.78542Q48.26875 235.30104 48.45625 236.05104Q48.64375 236.80104 48.64375 238.08229Q48.64375 239.59792 48.33125 240.51979Q48.034374 241.44167 47.409374 241.95729Q46.8 242.45729 45.846874 242.45729Q44.6125 242.45729 43.89375 241.56667Q43.05 240.50417 43.05 238.08229ZM44.128124 238.08229Q44.128124 240.19167 44.628124 240.89479Q45.128124 241.59792 45.846874 241.59792Q46.58125 241.59792 47.065624 240.89479Q47.565624 240.19167 47.565624 238.08229Q47.565624 235.95729 47.065624 235.26979Q46.58125 234.56667 45.83125 234.56667Q45.1125 234.56667 44.675 235.17604Q44.128124 235.95729 44.128124 238.08229ZM50.253124 235.78542Q50.253124 234.86354 50.70625 234.22292Q51.175 233.58229 52.05 233.58229Q52.8625 233.58229 53.39375 234.16042Q53.925 234.73854 53.925 235.84792Q53.925 236.94167 53.378124 237.53542Q52.846874 238.11354 52.065624 238.11354Q51.284374 238.11354 50.76875 237.53542Q50.253124 236.95729 50.253124 235.78542ZM52.08125 234.30104Q51.690624 234.30104 51.425 234.64479Q51.175 234.98854 51.175 235.89479Q51.175 236.72292 51.425 237.06667Q51.690624 237.39479 52.08125 237.39479Q52.4875 237.39479 52.7375 237.05104Q53.003124 236.70729 53.003124 235.81667Q53.003124 234.97292 52.7375 234.64479Q52.471874 234.30104 52.08125 234.30104ZM52.08125 242.62917L56.784374 233.58229L57.64375 233.58229L52.95625 242.62917L52.08125 242.62917ZM55.8 240.30104Q55.8 239.37917 56.253124 238.73854Q56.721874 238.09792 57.6125 238.09792Q58.425 238.09792 58.95625 238.67604Q59.4875 239.23854 59.4875 240.36354Q59.4875 241.45729 58.940624 242.05104Q58.409374 242.62917 57.6125 242.62917Q56.846874 242.62917 56.315624 242.05104Q55.8 241.47292 55.8 240.30104ZM57.64375 238.81667Q57.2375 238.81667 56.971874 239.16042Q56.721874 239.50417 56.721874 240.41042Q56.721874 241.22292 56.9875 241.56667Q57.253124 241.91042 57.64375 241.91042Q58.034374 241.91042 58.3 241.56667Q58.565624 241.22292 58.565624 240.31667Q58.565624 239.48854 58.3 239.16042Q58.034374 238.81667 57.64375 238.81667Z" fill-rule="nonzero"/><path fill="#000000" d="M22.425 180.18333L22.425 178.12083L18.70625 178.12083L18.70625 177.15208L22.628124 171.58958L23.4875 171.58958L23.4875 177.15208L24.64375 177.15208L24.64375 178.12083L23.4875 178.12083L23.4875 180.18333L22.425 180.18333ZM22.425 177.15208L22.425 173.29271L19.7375 177.15208L22.425 177.15208ZM26.05 175.94896Q26.05 174.41771 26.3625 173.49583Q26.675 172.55833 27.284374 172.05833Q27.909374 171.55833 28.846874 171.55833Q29.534374 171.55833 30.05 171.83958Q30.58125 172.12083 30.925 172.65208Q31.26875 173.16771 31.45625 173.91771Q31.64375 174.66771 31.64375 175.94896Q31.64375 177.46458 31.33125 178.38646Q31.034374 179.30833 30.409374 179.82396Q29.8 180.32396 28.846874 180.32396Q27.6125 180.32396 26.89375 179.43333Q26.05 178.37083 26.05 175.94896ZM27.128124 175.94896Q27.128124 178.05833 27.628124 178.76146Q28.128124 179.46458 28.846874 179.46458Q29.58125 179.46458 30.065624 178.76146Q30.565624 178.05833 30.565624 175.94896Q30.565624 173.82396 30.065624 173.13646Q29.58125 172.43333 28.83125 172.43333Q28.1125 172.43333 27.675 173.04271Q27.128124 173.82396 27.128124 175.94896ZM33.64375 180.18333L33.64375 178.98021L34.846874 178.98021L34.846874 180.18333L33.64375 180.18333ZM36.05 175.94896Q36.05 174.41771 36.3625 173.49583Q36.675 172.55833 37.284374 172.05833Q37.909374 171.55833 38.846874 171.55833Q39.534374 171.55833 40.05 171.83958Q40.58125 172.12083 40.925 172.65208Q41.26875 173.16771 41.45625 173.91771Q41.64375 174.66771 41.64375 175.94896Q41.64375 177.46458 41.33125 178.38646Q41.034374 179.30833 40.409374 179.82396Q39.8 180.32396 38.846874 180.32396Q37.6125 180.32396 36.89375 179.43333Q36.05 178.37083 36.05 175.94896ZM37.128124 175.94896Q37.128124 178.05833 37.628124 178.76146Q38.128124 179.46458 38.846874 179.46458Q39.58125 179.46458 40.065624 178.76146Q40.565624 178.05833 40.565624 175.94896Q40.565624 173.82396 40.065624 173.13646Q39.58125 172.43333 38.83125 172.43333Q38.1125 172.43333 37.675 173.04271Q37.128124 173.82396 37.128124 175.94896ZM43.05 175.94896Q43.05 174.41771 43.3625 173.49583Q43.675 172.55833 44.284374 172.05833Q44.909374 171.55833 45.846874 171.55833Q46.534374 171.55833 47.05 171.83958Q47.58125 172.12083 47.925 172.65208Q48.26875 173.16771 48.45625 173.91771Q48.64375 174.66771 48.64375 175.94896Q48.64375 177.46458 48.33125 178.38646Q48.034374 179.30833 47.409374 179.82396Q46.8 180.32396 45.846874 180.32396Q44.6125 180.32396 43.89375 179.43333Q43.05 178.37083 43.05 175.94896ZM44.128124 175.94896Q44.128124 178.05833 44.628124 178.76146Q45.128124 179.46458 45.846874 179.46458Q46.58125 179.46458 47.065624 178.76146Q47.565624 178.05833 47.565624 175.94896Q47.565624 173.82396 47.065624 173.13646Q46.58125 172.43333 45.83125 172.43333Q45.1125 172.43333 44.675 173.04271Q44.128124 173.82396 44.128124 175.94896ZM50.253124 173.65208Q50.253124 172.73021 50.70625 172.08958Q51.175 171.44896 52.05 171.44896Q52.8625 171.44896 53.39375 172.02708Q53.925 172.60521 53.925 173.71458Q53.925 174.80833 53.378124 175.40208Q52.846874 175.98021 52.065624 175.98021Q51.284374 175.98021 50.76875 175.40208Q50.253124 174.82396 50.253124 173.65208ZM52.08125 172.16771Q51.690624 172.16771 51.425 172.51146Q51.175 172.85521 51.175 173.76146Q51.175 174.58958 51.425 174.93333Q51.690624 175.26146 52.08125 175.26146Q52.4875 175.26146 52.7375 174.91771Q53.003124 174.57396 53.003124 173.68333Q53.003124 172.83958 52.7375 172.51146Q52.471874 172.16771 52.08125 172.16771ZM52.08125 180.49583L56.784374 171.44896L57.64375 171.44896L52.95625 180.49583L52.08125 180.49583ZM55.8 178.16771Q55.8 177.24583 56.253124 176.60521Q56.721874 175.96458 57.6125 175.96458Q58.425 175.96458 58.95625 176.54271Q59.4875 177.10521 59.4875 178.23021Q59.4875 179.32396 58.940624 179.91771Q58.409374 180.49583 57.6125 180.49583Q56.846874 180.49583 56.315624 179.91771Q55.8 179.33958 55.8 178.16771ZM57.64375 176.68333Q57.2375 176.68333 56.971874 177.02708Q56.721874 177.37083 56.721874 178.27708Q56.721874 179.08958 56.9875 179.43333Q57.253124 179.77708 57.64375 179.77708Q58.034374 179.77708 58.3 179.43333Q58.565624 179.08958 58.565624 178.18333Q58.565624 177.35521 58.3 177.02708Q58.034374 176.68333 57.64375 176.68333Z" fill-rule="nonzero"/><path fill="#000000" d="M24.51875 111.56563L23.471874 111.64375Q23.33125 111.01875 23.08125 110.7375Q22.64375 110.28438 22.01875 110.28438Q21.51875 110.28438 21.128124 110.56563Q20.64375 110.94063 20.346874 111.64375Q20.065624 112.33125 20.05 113.6125Q20.425 113.03438 20.971874 112.75313Q21.534374 112.47188 22.14375 112.47188Q23.190624 112.47188 23.925 113.25313Q24.675 114.03438 24.675 115.25313Q24.675 116.06563 24.315624 116.76875Q23.971874 117.45625 23.3625 117.83125Q22.753124 118.19063 21.9875 118.19063Q20.659374 118.19063 19.83125 117.22188Q19.003124 116.25313 19.003124 114.03438Q19.003124 111.53438 19.925 110.40938Q20.721874 109.425 22.08125 109.425Q23.096874 109.425 23.7375 110.00313Q24.39375 110.56563 24.51875 111.56563ZM20.221874 115.26875Q20.221874 115.81563 20.440624 116.31563Q20.675 116.8 21.08125 117.06563Q21.503124 117.33125 21.971874 117.33125Q22.628124 117.33125 23.1125 116.8Q23.596874 116.25313 23.596874 115.33125Q23.596874 114.44063 23.1125 113.925Q22.64375 113.40938 21.925 113.40938Q21.20625 113.40938 20.70625 113.925Q20.221874 114.44063 20.221874 115.26875ZM26.05 113.81563Q26.05 112.28438 26.3625 111.3625Q26.675 110.425 27.284374 109.925Q27.909374 109.425 28.846874 109.425Q29.534374 109.425 30.05 109.70625Q30.58125 109.9875 30.925 110.51875Q31.26875 111.03438 31.45625 111.78438Q31.64375 112.53438 31.64375 113.81563Q31.64375 115.33125 31.33125 116.25313Q31.034374 117.175 30.409374 117.69063Q29.8 118.19063 28.846874 118.19063Q27.6125 118.19063 26.89375 117.3Q26.05 116.2375 26.05 113.81563ZM27.128124 113.81563Q27.128124 115.925 27.628124 116.62813Q28.128124 117.33125 28.846874 117.33125Q29.58125 117.33125 30.065624 116.62813Q30.565624 115.925 30.565624 113.81563Q30.565624 111.69063 30.065624 111.00313Q29.58125 110.3 28.83125 110.3Q28.1125 110.3 27.675 110.90938Q27.128124 111.69063 27.128124 113.81563ZM33.64375 118.05L33.64375 116.84688L34.846874 116.84688L34.846874 118.05L33.64375 118.05ZM36.05 113.81563Q36.05 112.28438 36.3625 111.3625Q36.675 110.425 37.284374 109.925Q37.909374 109.425 38.846874 109.425Q39.534374 109.425 40.05 109.70625Q40.58125 109.9875 40.925 110.51875Q41.26875 111.03438 41.45625 111.78438Q41.64375 112.53438 41.64375 113.81563Q41.64375 115.33125 41.33125 116.25313Q41.034374 117.175 40.409374 117.69063Q39.8 118.19063 38.846874 118.19063Q37.6125 118.19063 36.89375 117.3Q36.05 116.2375 36.05 113.81563ZM37.128124 113.81563Q37.128124 115.925 37.628124 116.62813Q38.128124 117.33125 38.846874 117.33125Q39.58125 117.33125 40.065624 116.62813Q40.565624 115.925 40.565624 113.81563Q40.565624 111.69063 40.065624 111.00313Q39.58125 110.3 38.83125 110.3Q38.1125 110.3 37.675 110.90938Q37.128124 111.69063 37.128124 113.81563ZM43.05 113.81563Q43.05 112.28438 43.3625 111.3625Q43.675 110.425 44.284374 109.925Q44.909374 109.425 45.846874 109.425Q46.534374 109.425 47.05 109.70625Q47.58125 109.9875 47.925 110.51875Q48.26875 111.03438 48.45625 111.78438Q48.64375 112.53438 48.64375 113.81563Q48.64375 115.33125 48.33125 116.25313Q48.034374 117.175 47.409374 117.69063Q46.8 118.19063 45.846874 118.19063Q44.6125 118.19063 43.89375 117.3Q43.05 116.2375 43.05 113.81563ZM44.128124 113.81563Q44.128124 115.925 44.628124 116.62813Q45.128124 117.33125 45.846874 117.33125Q46.58125 117.33125 47.065624 116.62813Q47.565624 115.925 47.565624 113.81563Q47.565624 111.69063 47.065624 111.00313Q46.58125 110.3 45.83125 110.3Q45.1125 110.3 44.675 110.90938Q44.128124 111.69063 44.128124 113.81563ZM50.253124 111.51875Q50.253124 110.59688 50.70625 109.95625Q51.175 109.31563 52.05 109.31563Q52.8625 109.31563 53.39375 109.89375Q53.925 110.47188 53.925 111.58125Q53.925 112.675 53.378124 113.26875Q52.846874 113.84688 52.065624 113.84688Q51.284374 113.84688 50.76875 113.26875Q50.253124 112.69063 50.253124 111.51875ZM52.08125 110.03438Q51.690624 110.03438 51.425 110.37813Q51.175 110.72188 51.175 111.62813Q51.175 112.45625 51.425 112.8Q51.690624 113.12813 52.08125 113.12813Q52.4875 113.12813 52.7375 112.78438Q53.003124 112.44063 53.003124 111.55Q53.003124 110.70625 52.7375 110.37813Q52.471874 110.03438 52.08125 110.03438ZM52.08125 118.3625L56.784374 109.31563L57.64375 109.31563L52.95625 118.3625L52.08125 118.3625ZM55.8 116.03438Q55.8 115.1125 56.253124 114.47188Q56.721874 113.83125 57.6125 113.83125Q58.425 113.83125 58.95625 114.40938Q59.4875 114.97188 59.4875 116.09688Q59.4875 117.19063 58.940624 117.78438Q58.409374 118.3625 57.6125 118.3625Q56.846874 118.3625 56.315624 117.78438Q55.8 117.20625 55.8 116.03438ZM57.64375 114.55Q57.2375 114.55 56.971874 114.89375Q56.721874 115.2375 56.721874 116.14375Q56.721874 116.95625 56.9875 117.3Q57.253124 117.64375 57.64375 117.64375Q58.034374 117.64375 58.3 117.3Q58.565624 116.95625 58.565624 116.05Q58.565624 115.22188 58.3 114.89375Q58.034374 114.55 57.64375 114.55Z" fill-rule="nonzero"/><path fill="#000000" d="M20.675 51.260418Q20.01875 51.010418 19.690624 50.572918Q19.378124 50.119793 19.378124 49.510418Q19.378124 48.572918 20.05 47.932293Q20.7375 47.291668 21.846874 47.291668Q22.971874 47.291668 23.659374 47.947918Q24.346874 48.604168 24.346874 49.541668Q24.346874 50.135418 24.034374 50.572918Q23.721874 51.010418 23.08125 51.260418Q23.878124 51.510418 24.284374 52.088543Q24.690624 52.666668 24.690624 53.463543Q24.690624 54.557293 23.909374 55.307293Q23.14375 56.057293 21.8625 56.057293Q20.596874 56.057293 19.815624 55.307293Q19.034374 54.557293 19.034374 53.432293Q19.034374 52.588543 19.45625 52.026043Q19.89375 51.463543 20.675 51.260418ZM20.45625 49.463543Q20.45625 50.072918 20.846874 50.463543Q21.253124 50.854168 21.878124 50.854168Q22.4875 50.854168 22.878124 50.479168Q23.26875 50.088543 23.26875 49.526043Q23.26875 48.947918 22.8625 48.557293Q22.45625 48.151043 21.8625 48.151043Q21.253124 48.151043 20.846874 48.541668Q20.45625 48.932293 20.45625 49.463543ZM20.128124 53.432293Q20.128124 53.885418 20.33125 54.307293Q20.55 54.729168 20.971874 54.963543Q21.39375 55.197918 21.878124 55.197918Q22.628124 55.197918 23.1125 54.713543Q23.6125 54.229168 23.6125 53.479168Q23.6125 52.713543 23.1125 52.213543Q22.6125 51.713543 21.846874 51.713543Q21.096874 51.713543 20.6125 52.213543Q20.128124 52.697918 20.128124 53.432293ZM26.05 51.682293Q26.05 50.151043 26.3625 49.229168Q26.675 48.291668 27.284374 47.791668Q27.909374 47.291668 28.846874 47.291668Q29.534374 47.291668 30.05 47.572918Q30.58125 47.854168 30.925 48.385418Q31.26875 48.901043 31.45625 49.651043Q31.64375 50.401043 31.64375 51.682293Q31.64375 53.197918 31.33125 54.119793Q31.034374 55.041668 30.409374 55.557293Q29.8 56.057293 28.846874 56.057293Q27.6125 56.057293 26.89375 55.166668Q26.05 54.104168 26.05 51.682293ZM27.128124 51.682293Q27.128124 53.791668 27.628124 54.494793Q28.128124 55.197918 28.846874 55.197918Q29.58125 55.197918 30.065624 54.494793Q30.565624 53.791668 30.565624 51.682293Q30.565624 49.557293 30.065624 48.869793Q29.58125 48.166668 28.83125 48.166668Q28.1125 48.166668 27.675 48.776043Q27.128124 49.557293 27.128124 51.682293ZM33.64375 55.916668L33.64375 54.713543L34.846874 54.713543L34.846874 55.916668L33.64375 55.916668ZM36.05 51.682293Q36.05 50.151043 36.3625 49.229168Q36.675 48.291668 37.284374 47.791668Q37.909374 47.291668 38.846874 47.291668Q39.534374 47.291668 40.05 47.572918Q40.58125 47.854168 40.925 48.385418Q41.26875 48.901043 41.45625 49.651043Q41.64375 50.401043 41.64375 51.682293Q41.64375 53.197918 41.33125 54.119793Q41.034374 55.041668 40.409374 55.557293Q39.8 56.057293 38.846874 56.057293Q37.6125 56.057293 36.89375 55.166668Q36.05 54.104168 36.05 51.682293ZM37.128124 51.682293Q37.128124 53.791668 37.628124 54.494793Q38.128124 55.197918 38.846874 55.197918Q39.58125 55.197918 40.065624 54.494793Q40.565624 53.791668 40.565624 51.682293Q40.565624 49.557293 40.065624 48.869793Q39.58125 48.166668 38.83125 48.166668Q38.1125 48.166668 37.675 48.776043Q37.128124 49.557293 37.128124 51.682293ZM43.05 51.682293Q43.05 50.151043 43.3625 49.229168Q43.675 48.291668 44.284374 47.791668Q44.909374 47.291668 45.846874 47.291668Q46.534374 47.291668 47.05 47.572918Q47.58125 47.854168 47.925 48.385418Q48.26875 48.901043 48.45625 49.651043Q48.64375 50.401043 48.64375 51.682293Q48.64375 53.197918 48.33125 54.119793Q48.034374 55.041668 47.409374 55.557293Q46.8 56.057293 45.846874 56.057293Q44.6125 56.057293 43.89375 55.166668Q43.05 54.104168 43.05 51.682293ZM44.128124 51.682293Q44.128124 53.791668 44.628124 54.494793Q45.128124 55.197918 45.846874 55.197918Q46.58125 55.197918 47.065624 54.494793Q47.565624 53.791668 47.565624 51.682293Q47.565624 49.557293 47.065624 48.869793Q46.58125 48.166668 45.83125 48.166668Q45.1125 48.166668 44.675 48.776043Q44.128124 49.557293 44.128124 51.682293ZM50.253124 49.385418Q50.253124 48.463543 50.70625 47.822918Q51.175 47.182293 52.05 47.182293Q52.8625 47.182293 53.39375 47.760418Q53.925 48.338543 53.925 49.447918Q53.925 50.541668 53.378124 51.135418Q52.846874 51.713543 52.065624 51.713543Q51.284374 51.713543 50.76875 51.135418Q50.253124 50.557293 50.253124 49.385418ZM52.08125 47.901043Q51.690624 47.901043 51.425 48.244793Q51.175 48.588543 51.175 49.494793Q51.175 50.322918 51.425 50.666668Q51.690624 50.994793 52.08125 50.994793Q52.4875 50.994793 52.7375 50.651043Q53.003124 50.307293 53.003124 49.416668Q53.003124 48.572918 52.7375 48.244793Q52.471874 47.901043 52.08125 47.901043ZM52.08125 56.229168L56.784374 47.182293L57.64375 47.182293L52.95625 56.229168L52.08125 56.229168ZM55.8 53.901043Q55.8 52.979168 56.253124 52.338543Q56.721874 51.697918 57.6125 51.697918Q58.425 51.697918 58.95625 52.276043Q59.4875 52.838543 59.4875 53.963543Q59.4875 55.057293 58.940624 55.651043Q58.409374 56.229168 57.6125 56.229168Q56.846874 56.229168 56.315624 55.651043Q55.8 55.072918 55.8 53.901043ZM57.64375 52.416668Q57.2375 52.416668 56.971874 52.760418Q56.721874 53.104168 56.721874 54.010418Q56.721874 54.822918 56.9875 55.166668Q57.253124 55.510418 57.64375 55.510418Q58.034374 55.510418 58.3 55.166668Q58.565624 54.822918 58.565624 53.916668Q58.565624 53.088543 58.3 52.760418Q58.034374 52.416668 57.64375 52.416668Z" fill-rule="nonzero"/><path fill="#000000" d="M168.39226 316.5125L168.54851 317.4344Q168.09538 317.52814 167.75163 317.52814Q167.17351 317.52814 166.86101 317.35626Q166.54851 317.16876 166.40788 316.8719Q166.28288 316.575 166.28288 315.6219L166.28288 312.04376L165.51726 312.04376L165.51726 311.23126L166.28288 311.23126L166.28288 309.6844L167.32976 309.0594L167.32976 311.23126L168.39226 311.23126L168.39226 312.04376L167.32976 312.04376L167.32976 315.6844Q167.32976 316.1375 167.37663 316.2625Q167.43913 316.3875 167.56413 316.46564Q167.68913 316.54376 167.92351 316.54376Q168.11101 316.54376 168.39226 316.5125ZM172.76726 317.45L171.72038 317.45L171.72038 310.73126Q171.32976 311.09064 170.70476 311.46564Q170.09538 311.825 169.61101 311.9969L169.61101 310.98126Q170.48601 310.5594 171.14226 309.98126Q171.81413 309.3875 172.09538 308.825L172.76726 308.825L172.76726 317.45Z" fill-rule="nonzero"/><path fill="#000000" d="M322.09375 316.5125L322.25 317.4344Q321.79688 317.52814 321.45312 317.52814Q320.875 317.52814 320.5625 317.35626Q320.25 317.16876 320.10938 316.8719Q319.98438 316.575 319.98438 315.6219L319.98438 312.04376L319.21875 312.04376L319.21875 311.23126L319.98438 311.23126L319.98438 309.6844L321.03125 309.0594L321.03125 311.23126L322.09375 311.23126L322.09375 312.04376L321.03125 312.04376L321.03125 315.6844Q321.03125 316.1375 321.07812 316.2625Q321.14062 316.3875 321.26562 316.46564Q321.39062 316.54376 321.625 316.54376Q321.8125 316.54376 322.09375 316.5125ZM328.04688 316.4344L328.04688 317.45L322.35938 317.45Q322.35938 317.075 322.48438 316.71564Q322.70312 316.1375 323.17188 315.575Q323.65625 315.0125 324.5625 314.27814Q325.96875 313.1219 326.45312 312.45Q326.95312 311.77814 326.95312 311.1844Q326.95312 310.5594 326.5 310.1375Q326.04688 309.7 325.32812 309.7Q324.5625 309.7 324.10938 310.15314Q323.65625 310.60626 323.64062 311.41876L322.5625 311.3094Q322.67188 310.09064 323.39062 309.46564Q324.125 308.825 325.35938 308.825Q326.59375 308.825 327.3125 309.5125Q328.03125 310.2 328.03125 311.21564Q328.03125 311.73126 327.8125 312.23126Q327.60938 312.71564 327.10938 313.27814Q326.625 313.825 325.5 314.77814Q324.54688 315.575 324.26562 315.8719Q324.0 316.15314 323.82812 316.4344L328.04688 316.4344Z" fill-rule="nonzero"/><path fill="#000000" d="M475.79526 316.5125L475.9515 317.4344Q475.49838 317.52814 475.15463 317.52814Q474.5765 317.52814 474.264 317.35626Q473.9515 317.16876 473.81088 316.8719Q473.68588 316.575 473.68588 315.6219L473.68588 312.04376L472.92026 312.04376L472.92026 311.23126L473.68588 311.23126L473.68588 309.6844L474.73276 309.0594L474.73276 311.23126L475.79526 311.23126L475.79526 312.04376L474.73276 312.04376L474.73276 315.6844Q474.73276 316.1375 474.77963 316.2625Q474.84213 316.3875 474.96713 316.46564Q475.09213 316.54376 475.3265 316.54376Q475.514 316.54376 475.79526 316.5125ZM476.2015 315.1844L477.264 315.04376Q477.43588 315.9344 477.87338 316.34064Q478.31088 316.73126 478.93588 316.73126Q479.68588 316.73126 480.2015 316.21564Q480.71713 315.7 480.71713 314.9344Q480.71713 314.21564 480.23276 313.7469Q479.764 313.2625 479.02963 313.2625Q478.73276 313.2625 478.27963 313.3875L478.40463 312.45Q478.514 312.46564 478.5765 312.46564Q479.24838 312.46564 479.77963 312.1219Q480.3265 311.7625 480.3265 311.02814Q480.3265 310.45 479.93588 310.075Q479.54526 309.6844 478.92026 309.6844Q478.31088 309.6844 477.889 310.075Q477.48276 310.46564 477.37338 311.23126L476.31088 311.04376Q476.49838 309.9969 477.18588 309.41876Q477.87338 308.825 478.889 308.825Q479.59213 308.825 480.18588 309.1375Q480.77963 309.4344 481.09213 309.95Q481.40463 310.46564 481.40463 311.0594Q481.40463 311.60626 481.10776 312.075Q480.81088 312.52814 480.23276 312.79376Q480.98276 312.96564 481.40463 313.52814Q481.8265 314.075 481.8265 314.91876Q481.8265 316.04376 480.99838 316.825Q480.18588 317.60626 478.93588 317.60626Q477.81088 317.60626 477.06088 316.9344Q476.31088 316.2469 476.2015 315.1844Z" fill-rule="nonzero"/><path fill="#ff0000" d="M161.5 20.55C161.5 19.997715 161.94771 19.55 162.5 19.55L172.5 19.55C173.05229 19.55 173.5 19.997715 173.5 20.55L173.5 30.55C173.5 31.102285 173.05229 31.55 172.5 31.55L162.5 31.55C161.94771 31.55 161.5 31.102285 161.5 30.55Z" fill-rule="nonzero"/><path fill="#1a1a1a" d="M186.35938 27.26875L187.39062 27.409374Q187.21875 28.471874 186.51562 29.08125Q185.8125 29.690624 184.79688 29.690624Q183.51562 29.690624 182.73438 28.8625Q181.96875 28.01875 181.96875 26.45625Q181.96875 25.45625 182.29688 24.70625Q182.64062 23.940624 183.3125 23.565624Q184.0 23.190624 184.8125 23.190624Q185.8125 23.190624 186.45312 23.70625Q187.10938 24.20625 187.29688 25.159374L186.26562 25.315624Q186.125 24.690624 185.75 24.378124Q185.375 24.05 184.84375 24.05Q184.04688 24.05 183.54688 24.628124Q183.04688 25.190624 183.04688 26.425Q183.04688 27.690624 183.53125 28.253124Q184.01562 28.815624 184.78125 28.815624Q185.40625 28.815624 185.8125 28.440624Q186.23438 28.065624 186.35938 27.26875ZM188.26562 29.55L188.26562 20.95625L189.32812 20.95625L189.32812 29.55L188.26562 29.55ZM194.96875 29.55L193.92188 29.55L193.92188 22.83125Q193.53125 23.190624 192.90625 23.565624Q192.29688 23.925 191.8125 24.096874L191.8125 23.08125Q192.6875 22.659374 193.34375 22.08125Q194.01562 21.4875 194.29688 20.925L194.96875 20.925L194.96875 29.55Z" fill-rule="nonzero"/><path fill="#00ffff" d="M213.5 20.55C213.5 19.997715 213.94771 19.55 214.5 19.55L224.5 19.55C225.05229 19.55 225.5 19.997715 225.5 20.55L225.5 30.55C225.5 31.102285 225.05229 31.55 224.5 31.55L214.5 31.55C213.94771 31.55 213.5 31.102285 213.5 30.55Z" fill-rule="nonzero"/><path fill="#1a1a1a" d="M238.35938 27.26875L239.39062 27.409374Q239.21875 28.471874 238.51562 29.08125Q237.8125 29.690624 236.79688 29.690624Q235.51562 29.690624 234.73438 28.8625Q233.96875 28.01875 233.96875 26.45625Q233.96875 25.45625 234.29688 24.70625Q234.64062 23.940624 235.3125 23.565624Q236.0 23.190624 236.8125 23.190624Q237.8125 23.190624 238.45312 23.70625Q239.10938 24.20625 239.29688 25.159374L238.26562 25.315624Q238.125 24.690624 237.75 24.378124Q237.375 24.05 236.84375 24.05Q236.04688 24.05 235.54688 24.628124Q235.04688 25.190624 235.04688 26.425Q235.04688 27.690624 235.53125 28.253124Q236.01562 28.815624 236.78125 28.815624Q237.40625 28.815624 237.8125 28.440624Q238.23438 28.065624 238.35938 27.26875ZM240.26562 29.55L240.26562 20.95625L241.32812 20.95625L241.32812 29.55L240.26562 29.55ZM248.54688 28.534374L248.54688 29.55L242.85938 29.55Q242.85938 29.175 242.98438 28.815624Q243.20312 28.2375 243.67188 27.675Q244.15625 27.1125 245.0625 26.378124Q246.46875 25.221874 246.95312 24.55Q247.45312 23.878124 247.45312 23.284374Q247.45312 22.659374 247.0 22.2375Q246.54688 21.8 245.82812 21.8Q245.0625 21.8 244.60938 22.253124Q244.15625 22.70625 244.14062 23.51875L243.0625 23.409374Q243.17188 22.190624 243.89062 21.565624Q244.625 20.925 245.85938 20.925Q247.09375 20.925 247.8125 21.6125Q248.53125 22.3 248.53125 23.315624Q248.53125 23.83125 248.3125 24.33125Q248.10938 24.815624 247.60938 25.378124Q247.125 25.925 246.0 26.878124Q245.04688 27.675 244.76562 27.971874Q244.5 28.253124 244.32812 28.534374L248.54688 28.534374Z" fill-rule="nonzero"/><path fill="#0000ff" d="M265.5 20.55C265.5 19.997715 265.94772 19.55 266.5 19.55L276.5 19.55C277.05228 19.55 277.5 19.997715 277.5 20.55L277.5 30.55C277.5 31.102285 277.05228 31.55 276.5 31.55L266.5 31.55C265.94772 31.55 265.5 31.102285 265.5 30.55Z" fill-rule="nonzero"/><path fill="#1a1a1a" d="M290.35938 27.26875L291.39062 27.409374Q291.21875 28.471874 290.51562 29.08125Q289.8125 29.690624 288.79688 29.690624Q287.51562 29.690624 286.73438 28.8625Q285.96875 28.01875 285.96875 26.45625Q285.96875 25.45625 286.29688 24.70625Q286.64062 23.940624 287.3125 23.565624Q288.0 23.190624 288.8125 23.190624Q289.8125 23.190624 290.45312 23.70625Q291.10938 24.20625 291.29688 25.159374L290.26562 25.315624Q290.125 24.690624 289.75 24.378124Q289.375 24.05 288.84375 24.05Q288.04688 24.05 287.54688 24.628124Q287.04688 25.190624 287.04688 26.425Q287.04688 27.690624 287.53125 28.253124Q288.01562 28.815624 288.78125 28.815624Q289.40625 28.815624 289.8125 28.440624Q290.23438 28.065624 290.35938 27.26875ZM292.26562 29.55L292.26562 20.95625L293.32812 20.95625L293.32812 29.55L292.26562 29.55ZM295.0 27.284374L296.0625 27.14375Q296.23438 28.034374 296.67188 28.440624Q297.10938 28.83125 297.73438 28.83125Q298.48438 28.83125 299.0 28.315624Q299.51562 27.8 299.51562 27.034374Q299.51562 26.315624 299.03125 25.846874Q298.5625 25.3625 297.82812 25.3625Q297.53125 25.3625 297.07812 25.4875L297.20312 24.55Q297.3125 24.565624 297.375 24.565624Q298.04688 24.565624 298.57812 24.221874Q299.125 23.8625 299.125 23.128124Q299.125 22.55 298.73438 22.175Q298.34375 21.784374 297.71875 21.784374Q297.10938 21.784374 296.6875 22.175Q296.28125 22.565624 296.17188 23.33125L295.10938 23.14375Q295.29688 22.096874 295.98438 21.51875Q296.67188 20.925 297.6875 20.925Q298.39062 20.925 298.98438 21.2375Q299.57812 21.534374 299.89062 22.05Q300.20312 22.565624 300.20312 23.159374Q300.20312 23.70625 299.90625 24.175Q299.60938 24.628124 299.03125 24.89375Q299.78125 25.065624 300.20312 25.628124Q300.625 26.175 300.625 27.01875Q300.625 28.14375 299.79688 28.925Q298.98438 29.70625 297.73438 29.70625Q296.60938 29.70625 295.85938 29.034374Q295.10938 28.346874 295.0 27.284374Z" fill-rule="nonzero"/><path fill="#000000" d="M317.5 20.55C317.5 19.997715 317.94772 19.55 318.5 19.55L328.5 19.55C329.05228 19.55 329.5 19.997715 329.5 20.55L329.5 30.55C329.5 31.102285 329.05228 31.55 328.5 31.55L318.5 31.55C317.94772 31.55 317.5 31.102285 317.5 30.55Z" fill-rule="nonzero"/><path fill="#1a1a1a" d="M344.5625 26.534374L345.6875 26.83125Q345.32812 28.221874 344.40625 28.95625Q343.48438 29.690624 342.14062 29.690624Q340.75 29.690624 339.875 29.128124Q339.0 28.565624 338.54688 27.503124Q338.09375 26.425 338.09375 25.190624Q338.09375 23.846874 338.60938 22.846874Q339.125 21.846874 340.0625 21.33125Q341.01562 20.815624 342.15625 20.815624Q343.4375 20.815624 344.3125 21.471874Q345.20312 22.128124 345.54688 23.315624L344.42188 23.58125Q344.125 22.64375 343.54688 22.221874Q342.98438 21.784374 342.125 21.784374Q341.14062 21.784374 340.46875 22.26875Q339.8125 22.7375 339.53125 23.534374Q339.26562 24.33125 339.26562 25.190624Q339.26562 26.284374 339.57812 27.096874Q339.90625 27.909374 340.57812 28.315624Q341.25 28.721874 342.04688 28.721874Q343.0 28.721874 343.65625 28.175Q344.32812 27.628124 344.5625 26.534374ZM346.90625 26.440624Q346.90625 24.70625 347.85938 23.878124Q348.65625 23.190624 349.8125 23.190624Q351.09375 23.190624 351.90625 24.034374Q352.73438 24.8625 352.73438 26.346874Q352.73438 27.55 352.375 28.2375Q352.01562 28.925 351.3125 29.315624Q350.625 29.690624 349.8125 29.690624Q348.51562 29.690624 347.70312 28.8625Q346.90625 28.01875 346.90625 26.440624ZM347.98438 26.440624Q347.98438 27.628124 348.5 28.221874Q349.03125 28.815624 349.8125 28.815624Q350.60938 28.815624 351.125 28.221874Q351.64062 27.628124 351.64062 26.409374Q351.64062 25.253124 351.10938 24.659374Q350.59375 24.065624 349.8125 24.065624Q349.03125 24.065624 348.5 24.659374Q347.98438 25.2375 347.98438 26.440624ZM354.29688 29.55L354.29688 23.33125L355.23438 23.33125L355.23438 24.20625Q355.92188 23.190624 357.21875 23.190624Q357.78125 23.190624 358.25 23.39375Q358.73438 23.596874 358.96875 23.925Q359.20312 24.253124 359.29688 24.690624Q359.34375 24.9875 359.34375 25.721874L359.34375 29.55L358.29688 29.55L358.29688 25.76875Q358.29688 25.1125 358.17188 24.8Q358.04688 24.4875 357.73438 24.3Q357.42188 24.096874 357.0 24.096874Q356.32812 24.096874 355.82812 24.534374Q355.34375 24.95625 355.34375 26.14375L355.34375 29.55L354.29688 29.55ZM361.54688 29.55L361.54688 24.14375L360.60938 24.14375L360.60938 23.33125L361.54688 23.33125L361.54688 22.659374Q361.54688 22.034374 361.65625 21.7375Q361.8125 21.315624 362.1875 21.065624Q362.57812 20.815624 363.26562 20.815624Q363.71875 20.815624 364.25 20.925L364.09375 21.83125Q363.76562 21.784374 363.46875 21.784374Q362.98438 21.784374 362.78125 21.9875Q362.59375 22.190624 362.59375 22.753124L362.59375 23.33125L363.8125 23.33125L363.8125 24.14375L362.59375 24.14375L362.59375 29.55L361.54688 29.55ZM364.29688 22.175L364.29688 20.95625L365.35938 20.95625L365.35938 22.175L364.29688 22.175ZM364.29688 29.55L364.29688 23.33125L365.35938 23.33125L365.35938 29.55L364.29688 29.55ZM367.28125 29.55L367.28125 23.33125L368.23438 23.33125L368.23438 24.26875Q368.59375 23.6125 368.89062 23.409374Q369.20312 23.190624 369.57812 23.190624Q370.10938 23.190624 370.65625 23.51875L370.29688 24.503124Q369.90625 24.26875 369.53125 24.26875Q369.17188 24.26875 368.89062 24.4875Q368.625 24.690624 368.51562 25.065624Q368.32812 25.628124 368.32812 26.284374L368.32812 29.55L367.28125 29.55ZM371.29688 29.55L371.29688 23.33125L372.23438 23.33125L372.23438 24.20625Q372.53125 23.7375 373.01562 23.471874Q373.5 23.190624 374.125 23.190624Q374.8125 23.190624 375.25 23.471874Q375.70312 23.753124 375.875 24.26875Q376.625 23.190624 377.79688 23.190624Q378.73438 23.190624 379.21875 23.70625Q379.71875 24.20625 379.71875 25.284374L379.71875 29.55L378.67188 29.55L378.67188 25.628124Q378.67188 25.003124 378.5625 24.721874Q378.46875 24.440624 378.20312 24.26875Q377.9375 24.096874 377.5625 24.096874Q376.90625 24.096874 376.46875 24.534374Q376.04688 24.971874 376.04688 25.940624L376.04688 29.55L374.98438 29.55L374.98438 25.503124Q374.98438 24.8 374.71875 24.45625Q374.46875 24.096874 373.89062 24.096874Q373.4375 24.096874 373.0625 24.33125Q372.6875 24.565624 372.51562 25.01875Q372.34375 25.471874 372.34375 26.315624L372.34375 29.55L371.29688 29.55ZM386.54688 27.55L387.64062 27.675Q387.39062 28.628124 386.6875 29.159374Q385.98438 29.690624 384.90625 29.690624Q383.54688 29.690624 382.73438 28.846874Q381.9375 28.003124 381.9375 26.4875Q381.9375 24.925 382.75 24.065624Q383.5625 23.190624 384.84375 23.190624Q386.09375 23.190624 386.875 24.034374Q387.67188 24.878124 387.67188 26.425Q387.67188 26.51875 387.67188 26.70625L383.03125 26.70625Q383.09375 27.7375 383.60938 28.284374Q384.125 28.815624 384.90625 28.815624Q385.48438 28.815624 385.89062 28.51875Q386.3125 28.20625 386.54688 27.55ZM383.09375 25.846874L386.5625 25.846874Q386.5 25.05 386.17188 24.659374Q385.65625 24.05 384.85938 24.05Q384.125 24.05 383.625 24.534374Q383.14062 25.01875 383.09375 25.846874ZM393.32812 29.55L393.32812 28.76875Q392.73438 29.690624 391.59375 29.690624Q390.84375 29.690624 390.21875 29.284374Q389.59375 28.8625 389.25 28.128124Q388.90625 27.39375 388.90625 26.440624Q388.90625 25.51875 389.21875 24.753124Q389.53125 23.9875 390.15625 23.596874Q390.78125 23.190624 391.54688 23.190624Q392.10938 23.190624 392.54688 23.425Q392.98438 23.659374 393.26562 24.034374L393.26562 20.95625L394.3125 20.95625L394.3125 29.55L393.32812 29.55ZM390.0 26.440624Q390.0 27.64375 390.5 28.2375Q391.0 28.815624 391.6875 28.815624Q392.375 28.815624 392.85938 28.253124Q393.34375 27.690624 393.34375 26.534374Q393.34375 25.253124 392.84375 24.659374Q392.35938 24.065624 391.64062 24.065624Q390.9375 24.065624 390.46875 24.64375Q390.0 25.20625 390.0 26.440624ZM399.42188 29.55L399.42188 20.95625L402.39062 20.95625Q403.39062 20.95625 403.92188 21.08125Q404.65625 21.253124 405.17188 21.690624Q405.85938 22.26875 406.1875 23.175Q406.53125 24.065624 406.53125 25.20625Q406.53125 26.190624 406.29688 26.940624Q406.07812 27.690624 405.71875 28.190624Q405.35938 28.690624 404.92188 28.971874Q404.5 29.253124 403.90625 29.409374Q403.3125 29.55 402.53125 29.55L399.42188 29.55ZM400.5625 28.534374L402.39062 28.534374Q403.25 28.534374 403.73438 28.378124Q404.21875 28.221874 404.5 27.925Q404.90625 27.534374 405.125 26.846874Q405.35938 26.159374 405.35938 25.190624Q405.35938 23.846874 404.90625 23.128124Q404.46875 22.39375 403.84375 22.14375Q403.375 21.971874 402.375 21.971874L400.5625 21.971874L400.5625 28.534374ZM412.54688 27.55L413.64062 27.675Q413.39062 28.628124 412.6875 29.159374Q411.98438 29.690624 410.90625 29.690624Q409.54688 29.690624 408.73438 28.846874Q407.9375 28.003124 407.9375 26.4875Q407.9375 24.925 408.75 24.065624Q409.5625 23.190624 410.84375 23.190624Q412.09375 23.190624 412.875 24.034374Q413.67188 24.878124 413.67188 26.425Q413.67188 26.51875 413.67188 26.70625L409.03125 26.70625Q409.09375 27.7375 409.60938 28.284374Q410.125 28.815624 410.90625 28.815624Q411.48438 28.815624 411.89062 28.51875Q412.3125 28.20625 412.54688 27.55ZM409.09375 25.846874L412.5625 25.846874Q412.5 25.05 412.17188 24.659374Q411.65625 24.05 410.85938 24.05Q410.125 24.05 409.625 24.534374Q409.14062 25.01875 409.09375 25.846874ZM419.35938 28.784374Q418.76562 29.284374 418.21875 29.4875Q417.6875 29.690624 417.0625 29.690624Q416.03125 29.690624 415.48438 29.190624Q414.9375 28.690624 414.9375 27.909374Q414.9375 27.45625 415.14062 27.08125Q415.34375 26.690624 415.6875 26.471874Q416.03125 26.2375 416.45312 26.128124Q416.75 26.034374 417.39062 25.95625Q418.65625 25.815624 419.26562 25.596874Q419.26562 25.378124 419.26562 25.33125Q419.26562 24.675 418.96875 24.409374Q418.5625 24.065624 417.76562 24.065624Q417.03125 24.065624 416.67188 24.33125Q416.3125 24.58125 416.14062 25.2375L415.10938 25.096874Q415.25 24.440624 415.57812 24.034374Q415.90625 23.628124 416.51562 23.409374Q417.125 23.190624 417.92188 23.190624Q418.71875 23.190624 419.21875 23.378124Q419.71875 23.565624 419.95312 23.846874Q420.1875 24.128124 420.28125 24.565624Q420.32812 24.83125 420.32812 25.534374L420.32812 26.940624Q420.32812 28.409374 420.39062 28.8Q420.46875 29.190624 420.67188 29.55L419.5625 29.55Q419.40625 29.221874 419.35938 28.784374ZM419.26562 26.425Q418.6875 26.659374 417.54688 26.83125Q416.89062 26.925 416.625 27.05Q416.35938 27.159374 416.20312 27.378124Q416.0625 27.596874 416.0625 27.878124Q416.0625 28.3 416.375 28.58125Q416.70312 28.8625 417.3125 28.8625Q417.92188 28.8625 418.39062 28.596874Q418.875 28.33125 419.09375 27.8625Q419.26562 27.503124 419.26562 26.815624L419.26562 26.425ZM424.59375 28.6125L424.75 29.534374Q424.29688 29.628124 423.95312 29.628124Q423.375 29.628124 423.0625 29.45625Q422.75 29.26875 422.60938 28.971874Q422.48438 28.675 422.48438 27.721874L422.48438 24.14375L421.71875 24.14375L421.71875 23.33125L422.48438 23.33125L422.48438 21.784374L423.53125 21.159374L423.53125 23.33125L424.59375 23.33125L424.59375 24.14375L423.53125 24.14375L423.53125 27.784374Q423.53125 28.2375 423.57812 28.3625Q423.64062 28.4875 423.76562 28.565624Q423.89062 28.64375 424.125 28.64375Q424.3125 28.64375 424.59375 28.6125ZM425.29688 29.55L425.29688 20.95625L426.34375 20.95625L426.34375 24.034374Q427.07812 23.190624 428.20312 23.190624Q428.90625 23.190624 429.40625 23.471874Q429.92188 23.7375 430.14062 24.221874Q430.35938 24.690624 430.35938 25.6125L430.35938 29.55L429.3125 29.55L429.3125 25.6125Q429.3125 24.815624 428.96875 24.45625Q428.625 24.096874 428.0 24.096874Q427.53125 24.096874 427.10938 24.346874Q426.70312 24.58125 426.51562 25.003124Q426.34375 25.409374 426.34375 26.14375L426.34375 29.55L425.29688 29.55ZM431.875 27.690624L432.90625 27.534374Q433.0 28.159374 433.39062 28.4875Q433.79688 28.815624 434.53125 28.815624Q435.25 28.815624 435.59375 28.534374Q435.95312 28.2375 435.95312 27.83125Q435.95312 27.471874 435.64062 27.26875Q435.42188 27.128124 434.5625 26.909374Q433.40625 26.6125 432.95312 26.409374Q432.51562 26.190624 432.28125 25.815624Q432.04688 25.440624 432.04688 24.971874Q432.04688 24.565624 432.23438 24.20625Q432.42188 23.846874 432.75 23.6125Q433.0 23.440624 433.42188 23.315624Q433.84375 23.190624 434.34375 23.190624Q435.0625 23.190624 435.60938 23.409374Q436.17188 23.6125 436.4375 23.971874Q436.70312 24.33125 436.79688 24.925L435.76562 25.065624Q435.70312 24.596874 435.35938 24.33125Q435.03125 24.05 434.40625 24.05Q433.6875 24.05 433.375 24.3Q433.0625 24.534374 433.0625 24.8625Q433.0625 25.065624 433.1875 25.221874Q433.32812 25.39375 433.59375 25.503124Q433.75 25.565624 434.53125 25.76875Q435.65625 26.08125 436.09375 26.26875Q436.53125 26.45625 436.78125 26.815624Q437.03125 27.175 437.03125 27.721874Q437.03125 28.253124 436.71875 28.721874Q436.42188 29.175 435.84375 29.440624Q435.26562 29.690624 434.53125 29.690624Q433.3125 29.690624 432.67188 29.190624Q432.04688 28.675 431.875 27.690624Z" fill-rule="nonzero"/></svg>